<svg width="316" height="437" viewBox="0 0 316 437" fill="none" xmlns="http://www.w3.org/2000/svg">
<mask id="mask0" mask-type="alpha" maskUnits="userSpaceOnUse" x="0" y="0" width="316" height="437">
<path d="M65.795 311.533C65.795 380.569 121.759 436.533 190.795 436.533C259.83 436.533 315.795 380.569 315.795 311.533C315.795 278.242 315.795 0 315.795 0H1.29492C1.29492 0 -14.7051 311.533 65.795 311.533Z" fill="#C4C4C4"/>
</mask>
<g mask="url(#mask0)">
<circle r="125" transform="matrix(-1 0 0 1 190.795 337.5)" fill="#FFEB59"/>
<path d="M28.9229 128.264C25.0413 120.24 22.809 113.867 22.2261 109.145C21.6137 104.185 20.5994 85.927 19.1831 54.3715C19.0595 51.6186 20.966 49.1898 23.6691 48.6563L27.2851 47.9427C30.2943 47.3488 33.2195 49.2981 33.8307 52.3047L38.2768 74.1782C38.4381 74.9713 39.2116 75.484 40.0046 75.3233C40.4671 75.2296 40.856 74.9188 41.0494 74.4884C41.302 73.926 42.3513 63.2717 44.1973 42.5255C44.4622 39.548 47.0289 37.3111 50.015 37.4552L55.1509 37.7031C58.1952 37.8501 60.5587 40.4145 60.4572 43.4604L59.4526 73.6025C59.4304 74.2693 59.8454 74.873 60.4761 75.0912C61.0638 75.2945 61.7053 74.9869 61.9144 74.4015L69.0426 54.4455C70.0063 51.7475 72.8591 50.2209 75.6397 50.9154L79.4387 51.8651C82.4257 52.6111 84.2443 55.6366 83.5009 58.6233L74.3508 95.3859C74.2027 96.3177 74.0937 97.151 74.0531 97.7404C73.9601 99.0918 79.1637 100.639 79.6461 100.579C83.6669 100.086 91.2814 96.2633 94.0564 97.9086C96.7939 99.5316 99.5983 108.239 98.3211 109.482C97.0438 110.726 93.1866 114.232 82.1919 119.56C75.9069 122.605 70.3855 125.197 65.6275 127.335C59.3817 195.554 57.286 236.664 59.3404 250.666C62.7488 273.896 112.431 334.965 123.013 350.836C130.069 361.417 129.194 369.761 120.391 375.868C74.4429 325.752 46.7033 289.918 37.1717 268.367C31.5935 256.875 28.2954 246.995 27.2774 238.726L32.3961 247.034C30.2614 225.02 29.1037 185.43 28.9229 128.264Z" fill="#895BDF"/>
<path d="M115.025 132.682C106.4 139.631 101.481 151.26 109.173 160.709C116.864 170.157 134.311 175.824 143.873 168.121C153.435 160.418 151.491 142.263 143.8 132.814C136.108 123.366 123.651 125.734 115.025 132.682Z" fill="#885BDF"/>
<path d="M266.898 161.474C274.603 151.995 269.725 140.369 261.133 133.438C252.542 126.508 240.112 124.172 232.407 133.65C229.558 137.155 227.49 141.85 226.497 146.764C196.431 136.914 139.494 140.962 131.515 158.907C125.846 171.657 122.211 212.46 119.936 253.006C119 269.687 118.294 298.321 117.771 312.944C116.784 340.533 113.78 461.596 113.78 461.596H261.879C261.879 461.596 258.771 340.533 257.787 312.944C257.265 298.321 256.56 269.687 255.626 253.006C253.889 222 251.357 190.843 247.726 172.196C255.102 170.975 262.549 166.823 266.898 161.474Z" fill="#9060EB"/>
<path d="M135.161 375.886C137.244 346.506 160.126 333.19 187.744 333.19C215.286 333.19 237.673 346.677 239.863 375.886L243.143 462.865H130.72L135.161 375.886Z" fill="#17EBA0"/>
<path d="M191.889 338.94C197.567 336.639 202.123 333.374 205.556 329.143C200.727 331.111 193.51 332.557 183.906 333.484C169.498 334.873 171.64 346.601 191.889 338.94Z" fill="#17EBA0"/>
<path d="M131.798 158.994C126.788 170.236 122.597 208.032 120.131 251.355C117.665 294.678 113.701 462.231 113.701 462.231H156.102C155.28 447.965 155.882 348.465 158.93 339.19C167.18 314.08 176.81 313.387 187.225 304.89C197.639 296.393 155.773 311.221 158.93 266.21C152.483 239.056 169.987 219.973 174.48 209.928C181.866 193.417 161.608 186.417 161.608 175.133C161.608 162.155 156.794 145.256 187.225 141.518C147.155 143.036 135.137 151.504 131.798 158.994Z" fill="black" fill-opacity="0.05"/>
<path d="M116.862 353.766C116.694 344.158 115.16 334.617 112.262 325.144C119.576 329.709 123.313 336.556 123.473 345.683C123.713 359.373 117.115 368.179 116.862 353.766Z" fill="#885BDF"/>
<path d="M154.167 203.882C160.821 210.509 156.383 222.529 161.916 217.02C167.449 211.51 167.458 202.587 161.936 197.088C156.414 191.59 147.452 191.599 141.919 197.108C136.386 202.618 147.512 197.256 154.167 203.882Z" fill="#7A52C7"/>
<path d="M220.025 213.039C213.37 206.413 217.808 194.392 212.275 199.901C206.742 205.411 206.733 214.334 212.255 219.833C217.777 225.331 226.739 225.322 232.272 219.813C237.805 214.304 226.679 219.665 220.025 213.039Z" fill="#976AEB"/>
<path d="M187.292 233.839C190.478 233.839 198.444 229.271 198.444 224.105C198.444 218.939 192.571 218.248 187.292 218.248C182.012 218.248 176.139 218.939 176.139 224.105C176.139 229.271 184.105 233.839 187.292 233.839ZM223.936 218.248C229.215 218.248 233.495 214.059 233.495 208.893C233.495 203.727 229.215 199.538 223.936 199.538C218.656 199.538 214.377 203.727 214.377 208.893C214.377 214.059 218.656 218.248 223.936 218.248ZM150.648 218.248C155.927 218.248 160.207 214.059 160.207 208.893C160.207 203.727 155.927 199.538 150.648 199.538C145.369 199.538 141.089 203.727 141.089 208.893C141.089 214.059 145.369 218.248 150.648 218.248Z" fill="black"/>
<path d="M190.873 224.549C193.053 224.549 194.82 223.835 194.82 222.955C194.82 222.074 193.053 221.361 190.873 221.361C188.693 221.361 186.926 222.074 186.926 222.955C186.926 223.835 188.693 224.549 190.873 224.549ZM229.231 206.215C229.231 204.914 228.155 203.86 226.828 203.86C225.5 203.86 224.424 204.914 224.424 206.215C224.424 207.517 225.5 208.571 226.828 208.571C228.155 208.571 229.231 207.517 229.231 206.215ZM156.608 206.215C156.608 204.914 155.532 203.86 154.204 203.86C152.877 203.86 151.8 204.914 151.8 206.215C151.8 207.517 152.877 208.571 154.204 208.571C155.532 208.571 156.608 207.517 156.608 206.215Z" fill="white" fill-opacity="0.3"/>
<path d="M238.58 180.322L240.399 179.918L234.983 178.632C232.119 177.824 227.641 176.619 222.654 175.497C221.126 175.153 219.642 174.847 218.234 174.576L219.102 173.665H213.475L215.825 172.166C211.086 172.166 208.358 172.166 207.644 172.166C206.863 172.166 206.573 172.544 206.487 173.053C206.456 173.117 206.44 173.191 206.444 173.272L206.457 173.526C206.458 173.572 206.459 173.618 206.462 173.665C206.462 173.68 206.464 173.696 206.467 173.711L207.025 184.687C207.039 184.963 207.277 185.189 207.557 185.19C207.557 185.19 213.35 185.179 221.593 185.546C229.835 185.912 236.562 186.244 236.562 186.244C236.842 186.257 237.124 186.049 237.193 185.777L238.58 180.322ZM145.76 185.942L143.84 187.166C148.177 186.448 151.708 185.896 154.433 185.51C154.898 185.488 155.37 185.465 155.846 185.442C164.472 185.025 170.557 184.995 170.557 184.995C170.837 184.992 171.077 184.769 171.095 184.483L171.769 173.524C171.869 172.798 172.097 171.555 172.453 169.795L164.999 173.719C164.985 173.721 164.971 173.723 164.957 173.725L165.662 172.254L160.083 174.52C160.082 174.529 160.082 174.538 160.081 174.548C158.417 174.852 156.641 175.202 154.806 175.6C145.852 177.545 138.442 179.72 138.442 179.72C138.173 179.798 138.014 180.081 138.086 180.352L139.519 185.767C139.591 186.039 139.877 186.247 140.153 186.232C140.153 186.232 142.338 186.117 145.76 185.942ZM194.627 285.356C195.517 285.356 196.238 284.64 196.238 283.758C196.238 282.875 195.517 282.16 194.627 282.16H180.308C179.418 282.16 178.696 282.875 178.696 283.758C178.696 284.64 179.418 285.356 180.308 285.356H194.627Z" fill="#6633BC"/>
<path d="M188.323 273.224C158.694 273.224 134.675 263.247 134.675 250.717C134.675 238.187 158.694 246.927 188.323 246.927C217.952 246.927 241.972 238.187 241.972 250.717C241.972 263.247 217.952 273.224 188.323 273.224Z" fill="#8F2E2E"/>
<path d="M226.387 243.961C223.294 243.961 217.881 244.675 217.881 244.675C218.654 247.171 220.201 251.906 222.134 251.906C224.067 251.906 225.613 246.814 226.387 243.961ZM149.061 243.961C149.834 246.814 151.381 252.322 153.314 252.322C155.247 252.322 156.794 247.171 157.567 244.675C157.567 244.675 152.154 243.961 149.061 243.961Z" fill="white"/>
<path d="M186.525 249.933C167.821 249.933 152.658 253.681 152.658 260.613C152.658 270.11 167.821 272.029 186.525 272.029C205.23 272.029 220.393 271.856 220.393 260.613C220.393 253.681 205.23 249.933 186.525 249.933Z" fill="#7F2828"/>
<path d="M204.208 251.115C197.697 250.341 189.8 251.496 188.687 254.946C187.575 258.395 190.171 259.453 190.146 261.807C190.12 264.161 188.545 265.46 186.832 265.46C185.172 265.46 183.597 264.161 183.572 261.807C183.546 259.453 186.143 258.395 185.03 254.946C183.918 251.496 174.251 250.307 168.842 251.115L172.196 248.739H201.597L204.208 251.115Z" fill="#8F2E2E"/>
<path d="M167.043 271.206C167.039 270.76 169.487 268.906 177.124 267.497C182.477 266.51 185.066 268.817 186.178 268.817C187.291 268.817 190.099 266.51 195.453 267.497C203.089 268.906 206.006 271.231 206.006 271.206C191.141 272.617 182.817 273.528 167.043 271.206Z" fill="#AE3939"/>
<path d="M149.661 243.961C150.161 246.056 151.16 250.1 152.41 250.1C153.66 250.1 154.66 246.318 155.16 244.485C155.16 244.485 151.66 243.961 149.661 243.961ZM220.616 244.353C218.65 244.506 217.866 244.707 217.866 244.707C218.366 246.539 220.178 251.725 220.816 251.725C221.454 251.725 220.116 246.447 220.616 244.353Z" fill="black" fill-opacity="0.05"/>
</g>
</svg>
